<svg viewBox="-39 0 512 512" xmlns="http://www.w3.org/2000/svg"><path d="m367.339844 316.507812c-19.179688-9.597656-41.3125-17.140624-65.335938-22.425781 56.097656-15.757812 93.476563-46.828125 93.476563-83.367187 0-38.9375-42.449219-71.667969-104.765625-86.273438 4.570312-1.734375 8.949218-3.628906 13.085937-5.699218 25.632813-12.824219 39.75-30.679688 39.75-50.28125 0-19.597657-14.117187-37.457032-39.75-50.28125-23.433593-11.722657-54.363281-18.179688-87.097656-18.179688s-63.664063 6.457031-87.097656 18.179688c-25.628907 12.824218-39.746094 30.683593-39.746094 50.28125 0 19.597656 14.113281 37.457031 39.746094 50.28125 4.136719 2.070312 8.515625 3.964843 13.089843 5.699218-62.320312 14.605469-104.765624 47.335938-104.765624 86.273438 0 36.535156 37.378906 67.605468 93.476562 83.367187-24.027344 5.285157-46.160156 12.828125-65.339844 22.425781-42.601562 21.3125-66.066406 50.460938-66.066406 82.070313s23.464844 60.757813 66.066406 82.074219c40.402344 20.214844 93.902344 31.347656 150.636719 31.347656s110.234375-11.132812 150.636719-31.347656c42.605468-21.316406 66.066406-50.464844 66.066406-82.074219 0-31.605469-23.460938-60.753906-66.066406-82.070313zm-228.785156-215.652343c-18.238282-9.125-28.695313-20.933594-28.695313-32.394531 0-11.464844 10.457031-23.269532 28.695313-32.394532 20.707031-10.359375 48.460937-16.066406 78.148437-16.066406s57.441406 5.707031 78.148437 16.066406c18.234376 9.125 28.695313 20.929688 28.695313 32.394532 0 11.464843-10.460937 23.269531-28.699219 32.394531-17.578125 8.796875-40.25 14.222656-64.863281 15.664062-4.378906-.160156-8.808594-.246093-13.28125-.246093-4.476563 0-8.902344.085937-13.285156.246093-24.609375-1.441406-47.28125-6.867187-64.863281-15.664062zm-36.71875 160.625c-27.90625-13.960938-43.910157-32.464844-43.910157-50.765625 0-18.304688 16.003907-36.808594 43.910157-50.769532 27.355468-13.6875 62.980468-21.855468 101.445312-23.402343 4.433594.242187 8.90625.378906 13.421875.378906s8.988281-.136719 13.421875-.378906c38.464844 1.546875 74.089844 9.714843 101.445312 23.402343 27.90625 13.960938 43.910157 32.464844 43.910157 50.769532 0 18.300781-16.003907 36.804687-43.910157 50.765625-30.515624 15.269531-71.308593 23.675781-114.867187 23.675781s-84.351563-8.40625-114.867187-23.675781zm256.554687 201.285156c-37.679687 18.851563-88 29.234375-141.6875 29.234375s-104.007813-10.382812-141.6875-29.234375c-35.480469-17.75-55.019531-40.546875-55.019531-64.1875s19.539062-46.433594 55.019531-64.183594c37.679687-18.855469 87.996094-29.234375 141.6875-29.234375s104.007813 10.378906 141.6875 29.234375c35.480469 17.75 55.015625 40.542969 55.015625 64.183594s-19.539062 46.4375-55.015625 64.1875zm0 0"/><path d="m217.121094 333.160156h-.417969c-5.523437 0-10 4.476563-10 10 0 5.523438 4.476563 10 10 10h.417969c5.523437 0 10-4.476562 10-10 0-5.523437-4.476563-10-10-10zm0 0"/><path d="m345.863281 359.433594c-23.324219-11.667969-53.171875-19.894532-86.316406-23.789063-5.488281-.640625-10.453125 3.277344-11.097656 8.765625-.644531 5.484375 3.277343 10.453125 8.765625 11.097656 30.867187 3.628907 58.425781 11.171876 79.699218 21.8125 20.507813 10.261719 27.5 19.65625 28.527344 22.09375.425782 5.132813 4.722656 9.164063 9.964844 9.164063 5.523438 0 10-4.476563 10-10 0-11.941406-15.152344-26.9375-39.542969-39.144531zm0 0"/></svg>